<?xml version="1.0" encoding="utf-8"?>
<!-- Generator: Adobe Illustrator 25.1.0, SVG Export Plug-In . SVG Version: 6.00 Build 0)  -->
<svg version="1.1" id="Capa_1" xmlns="http://www.w3.org/2000/svg" xmlns:xlink="http://www.w3.org/1999/xlink" x="0px" y="0px"
	 viewBox="184.03 382.86 57.33 56.54" enable-background="new 184.03 382.86 57.33 56.54" xml:space="preserve">
<g>
	<g>
		<linearGradient id="SVGID_1_" gradientUnits="userSpaceOnUse" x1="232.246" y1="391.9473" x2="234.2025" y2="391.9473">
			<stop  offset="0" style="stop-color:#EC7083"/>
			<stop  offset="0.5" style="stop-color:#ED217E"/>
			<stop  offset="1" style="stop-color:#AB2F92"/>
		</linearGradient>
		<path fill="url(#SVGID_1_)" d="M234.2,391.95c0,0.54-0.44,0.98-0.98,0.98c-0.54,0-0.98-0.44-0.98-0.98c0-0.54,0.44-0.98,0.98-0.98
			C233.76,390.97,234.2,391.41,234.2,391.95L234.2,391.95z M234.2,391.95"/>
		<linearGradient id="SVGID_2_" gradientUnits="userSpaceOnUse" x1="227.255" y1="391.9473" x2="229.2115" y2="391.9473">
			<stop  offset="0" style="stop-color:#EC7083"/>
			<stop  offset="0.5" style="stop-color:#ED217E"/>
			<stop  offset="1" style="stop-color:#AB2F92"/>
		</linearGradient>
		<path fill="url(#SVGID_2_)" d="M229.21,391.95c0,0.54-0.44,0.98-0.98,0.98c-0.54,0-0.98-0.44-0.98-0.98
			c0-0.54,0.44-0.98,0.98-0.98C228.77,390.97,229.21,391.41,229.21,391.95L229.21,391.95z M229.21,391.95"/>
		<linearGradient id="SVGID_3_" gradientUnits="userSpaceOnUse" x1="222.264" y1="391.9473" x2="224.2205" y2="391.9473">
			<stop  offset="0" style="stop-color:#EC7083"/>
			<stop  offset="0.5" style="stop-color:#ED217E"/>
			<stop  offset="1" style="stop-color:#AB2F92"/>
		</linearGradient>
		<path fill="url(#SVGID_3_)" d="M224.22,391.95c0,0.54-0.44,0.98-0.98,0.98c-0.54,0-0.98-0.44-0.98-0.98
			c0-0.54,0.44-0.98,0.98-0.98C223.78,390.97,224.22,391.41,224.22,391.95L224.22,391.95z M224.22,391.95"/>
	</g>
	<g>
		<linearGradient id="SVGID_4_" gradientUnits="userSpaceOnUse" x1="215.1015" y1="391.9473" x2="241.3651" y2="391.9473">
			<stop  offset="0" style="stop-color:#EC7083"/>
			<stop  offset="0.5" style="stop-color:#ED217E"/>
			<stop  offset="1" style="stop-color:#AB2F92"/>
		</linearGradient>
		<path fill="url(#SVGID_4_)" d="M232.28,401.03H215.1v-9.08c0-5.01,4.07-9.08,9.08-9.08h8.1c5.01,0,9.08,4.07,9.08,9.08
			C241.37,396.96,237.29,401.03,232.28,401.03z M217.21,398.92h15.07c3.84,0,6.97-3.13,6.97-6.97c0-3.84-3.13-6.97-6.97-6.97h-8.1
			c-3.84,0-6.97,3.13-6.97,6.97V398.92z"/>
	</g>
</g>
<g>
	<linearGradient id="SVGID_5_" gradientUnits="userSpaceOnUse" x1="184.3651" y1="417.7396" x2="217.1397" y2="417.7396">
		<stop  offset="0" style="stop-color:#EC7083"/>
		<stop  offset="0.5" style="stop-color:#ED217E"/>
		<stop  offset="1" style="stop-color:#AB2F92"/>
	</linearGradient>
	<path fill="url(#SVGID_5_)" d="M185.05,429.33c-0.44,0.7-0.69,1.52-0.69,2.39v6.58c0,0.47,0.38,0.85,0.85,0.85
		c0.47,0,0.85-0.38,0.85-0.85v-6.58c0-1.17,0.74-2.23,1.84-2.63l5.54-2.02l2.31,3.46c0.29,0.44,0.77,0.73,1.3,0.78
		c0.06,0.01,0.12,0.01,0.18,0.01c0.47,0,0.91-0.18,1.25-0.52l1.41-1.41v8.9c0,0.47,0.38,0.85,0.85,0.85c0.47,0,0.85-0.38,0.85-0.85
		v-8.9l1.41,1.41c0.33,0.33,0.78,0.52,1.25,0.52c0.06,0,0.12,0,0.18-0.01c0.53-0.05,1-0.34,1.3-0.78l2.31-3.46l5.54,2.02
		c1.1,0.4,1.84,1.46,1.84,2.63v6.58c0,0.47,0.38,0.85,0.85,0.85s0.85-0.38,0.85-0.85v-6.58c0-1.19-0.47-2.3-1.26-3.13
		c-0.44-0.54-1.98-1.21-1.98-1.21l-4.98-1.81c0.02-0.24-0.06-0.47-0.23-0.65l-1.59-1.67v-2.81c0.17-0.14,0.33-0.28,0.49-0.43
		c2.01-1.88,3.16-4.54,3.16-7.29v-2.24c0.61-1.32,0.91-2.72,0.91-4.15v-9.14c0-0.47-0.38-0.85-0.85-0.85h-12.79
		c-4.5,0-8.16,3.66-8.16,8.16v1.83c0,1.44,0.31,2.83,0.91,4.15v1.93c0,3.19,1.42,6.07,3.65,7.97v2.87l-1.59,1.67
		c-0.17,0.18-0.25,0.42-0.23,0.65l-5.26,1.91c-0.38,0.14-0.74,0.33-1.06,0.55L185.05,429.33z M192.47,412.4v-2.12
		c0-0.13-0.03-0.26-0.09-0.37c-0.55-1.14-0.83-2.35-0.83-3.59v-1.83c0-3.56,2.9-6.45,6.45-6.45h11.94v8.28
		c0,1.24-0.28,2.45-0.83,3.59c-0.06,0.12-0.08,0.24-0.08,0.37v2.43c0,2.31-0.93,4.46-2.62,6.04c-0.21,0.2-0.43,0.38-0.66,0.56
		c-0.01,0-0.01,0.01-0.01,0.01c-1.58,1.2-3.52,1.79-5.55,1.65C195.87,420.7,192.47,416.93,192.47,412.4z M200.09,422.68
		c0.23,0.01,0.45,0.02,0.67,0.02c1.63,0,3.21-0.39,4.62-1.13v1.56l-4.63,3.16l-4.63-3.16v-1.6
		C197.32,422.19,198.66,422.59,200.09,422.68z M197.28,429.6c-0.01,0.01-0.02,0.02-0.05,0.02c-0.03,0-0.04-0.02-0.04-0.03
		l-2.66-3.99l0.86-0.9l4.03,2.76L197.28,429.6z M204.31,429.59c0,0.01-0.02,0.02-0.04,0.03c-0.03,0-0.04-0.01-0.05-0.02l-2.14-2.14
		l4.03-2.76l0.86,0.9L204.31,429.59z"/>
	<linearGradient id="SVGID_6_" gradientUnits="userSpaceOnUse" x1="193.502" y1="406.5452" x2="208.0028" y2="406.5452">
		<stop  offset="0" style="stop-color:#EC7083"/>
		<stop  offset="0.5" style="stop-color:#ED217E"/>
		<stop  offset="1" style="stop-color:#AB2F92"/>
	</linearGradient>
	<path fill="url(#SVGID_6_)" d="M195.21,406.18c0-0.03,0.02-0.05,0.04-0.06c1.1-0.17,3.29-0.42,5.55-0.27
		c2.66,0.18,4.59,0.85,5.74,1.99c0.33,0.33,0.87,0.33,1.21,0c0.33-0.33,0.33-0.87,0-1.21c-3.23-3.23-9.99-2.61-12.75-2.2
		c-0.87,0.13-1.5,0.87-1.5,1.75v1.97c0,0.47,0.38,0.85,0.85,0.85s0.85-0.38,0.85-0.85V406.18L195.21,406.18z"/>
	<linearGradient id="SVGID_7_" gradientUnits="userSpaceOnUse" x1="189.8473" y1="436.4702" x2="191.5564" y2="436.4702">
		<stop  offset="0" style="stop-color:#EC7083"/>
		<stop  offset="0.5" style="stop-color:#ED217E"/>
		<stop  offset="1" style="stop-color:#AB2F92"/>
	</linearGradient>
	<path fill="url(#SVGID_7_)" d="M190.7,433.79c-0.47,0-0.85,0.38-0.85,0.85v3.65c0,0.47,0.38,0.85,0.85,0.85
		c0.47,0,0.85-0.38,0.85-0.85v-3.65C191.56,434.17,191.17,433.79,190.7,433.79z"/>
	<linearGradient id="SVGID_8_" gradientUnits="userSpaceOnUse" x1="209.9486" y1="436.4702" x2="211.6577" y2="436.4702">
		<stop  offset="0" style="stop-color:#EC7083"/>
		<stop  offset="0.5" style="stop-color:#ED217E"/>
		<stop  offset="1" style="stop-color:#AB2F92"/>
	</linearGradient>
	<path fill="url(#SVGID_8_)" d="M210.8,433.79c-0.47,0-0.85,0.38-0.85,0.85v3.65c0,0.47,0.38,0.85,0.85,0.85
		c0.47,0,0.85-0.38,0.85-0.85v-3.65C211.66,434.17,211.28,433.79,210.8,433.79z"/>
</g>
</svg>
