<svg xmlns="http://www.w3.org/2000/svg" xmlns:xlink="http://www.w3.org/1999/xlink" viewBox="0 0 48 48"><defs><style>.cls-1{fill:url(#Degradado_sin_nombre_19);}.cls-2{fill:url(#Degradado_sin_nombre_19-2);}.cls-3{fill:url(#Degradado_sin_nombre_19-3);}.cls-4{fill:url(#Degradado_sin_nombre_19-4);}.cls-5{fill:url(#Degradado_sin_nombre_19-5);}.cls-6{fill:url(#Degradado_sin_nombre_19-6);}.cls-7{fill:url(#Degradado_sin_nombre_19-7);}.cls-8{fill:url(#Degradado_sin_nombre_19-8);}.cls-9{fill:url(#Degradado_sin_nombre_19-9);}.cls-10{fill:url(#Degradado_sin_nombre_19-10);}.cls-11{fill:url(#Degradado_sin_nombre_19-11);}.cls-12{fill:url(#Degradado_sin_nombre_19-12);}.cls-13{fill:url(#Degradado_sin_nombre_19-13);}.cls-14{fill:url(#Degradado_sin_nombre_19-14);}.cls-15{fill:url(#Degradado_sin_nombre_19-15);}.cls-16{fill:url(#Degradado_sin_nombre_19-16);}.cls-17{fill:url(#Degradado_sin_nombre_19-17);}.cls-18{fill:url(#Degradado_sin_nombre_19-18);}</style><linearGradient id="Degradado_sin_nombre_19" y1="24" x2="48" y2="24" gradientUnits="userSpaceOnUse"><stop offset="0" stop-color="#ec7083"/><stop offset="0.5" stop-color="#ed217e"/><stop offset="1" stop-color="#ab2f92"/></linearGradient><linearGradient id="Degradado_sin_nombre_19-2" x1="29.15" y1="36.87" x2="44.59" y2="36.87" xlink:href="#Degradado_sin_nombre_19"/><linearGradient id="Degradado_sin_nombre_19-3" x1="35.93" y1="34.9" x2="41.42" y2="34.9" xlink:href="#Degradado_sin_nombre_19"/><linearGradient id="Degradado_sin_nombre_19-4" x1="32.55" y1="7.03" x2="34.42" y2="7.03" xlink:href="#Degradado_sin_nombre_19"/><linearGradient id="Degradado_sin_nombre_19-5" x1="19.67" y1="7.03" x2="31.02" y2="7.03" xlink:href="#Degradado_sin_nombre_19"/><linearGradient id="Degradado_sin_nombre_19-6" x1="19.67" y1="10.89" x2="21.54" y2="10.89" xlink:href="#Degradado_sin_nombre_19"/><linearGradient id="Degradado_sin_nombre_19-7" x1="23.07" y1="10.89" x2="34.42" y2="10.89" xlink:href="#Degradado_sin_nombre_19"/><linearGradient id="Degradado_sin_nombre_19-8" x1="7.69" y1="8.96" x2="17.81" y2="8.96" xlink:href="#Degradado_sin_nombre_19"/><linearGradient id="Degradado_sin_nombre_19-9" x1="10.4" y1="8.96" x2="15.1" y2="8.96" xlink:href="#Degradado_sin_nombre_19"/><linearGradient id="Degradado_sin_nombre_19-10" x1="32.55" y1="19.54" x2="34.42" y2="19.54" xlink:href="#Degradado_sin_nombre_19"/><linearGradient id="Degradado_sin_nombre_19-11" x1="19.67" y1="19.54" x2="31.02" y2="19.54" xlink:href="#Degradado_sin_nombre_19"/><linearGradient id="Degradado_sin_nombre_19-12" x1="19.67" y1="23.4" x2="21.54" y2="23.4" xlink:href="#Degradado_sin_nombre_19"/><linearGradient id="Degradado_sin_nombre_19-13" x1="23.07" y1="23.4" x2="34.42" y2="23.4" xlink:href="#Degradado_sin_nombre_19"/><linearGradient id="Degradado_sin_nombre_19-14" x1="7.69" y1="21.47" x2="17.81" y2="21.47" xlink:href="#Degradado_sin_nombre_19"/><linearGradient id="Degradado_sin_nombre_19-15" x1="10.4" y1="21.47" x2="15.1" y2="21.47" xlink:href="#Degradado_sin_nombre_19"/><linearGradient id="Degradado_sin_nombre_19-16" x1="19.67" y1="35.91" x2="21.54" y2="35.91" xlink:href="#Degradado_sin_nombre_19"/><linearGradient id="Degradado_sin_nombre_19-17" x1="7.69" y1="33.98" x2="17.81" y2="33.98" xlink:href="#Degradado_sin_nombre_19"/><linearGradient id="Degradado_sin_nombre_19-18" x1="10.4" y1="33.98" x2="15.1" y2="33.98" xlink:href="#Degradado_sin_nombre_19"/></defs><g id="Capa_2" data-name="Capa 2"><g id="Capa_1-2" data-name="Capa 1"><path class="cls-1" d="M37.93,25.79V.94A.94.94,0,0,0,37,0H.94A.94.94,0,0,0,0,.94V42a.94.94,0,0,0,.94.94H27.55A11.13,11.13,0,1,0,37.93,25.79ZM1.88,1.88H4.31V41.06H1.88ZM26.56,41.06H6.19V1.88H36.06V25.77h-.14l-.16,0h-.12l-.15,0-.13,0-.14,0-.13,0-.14,0-.13,0-.14,0-.13,0-.13,0-.13,0-.13,0-.13,0-.13,0-.13,0-.13,0-.13,0-.12,0-.13.05-.12,0-.14.05-.11,0-.13.05-.12,0-.13.05-.11.05-.13.06-.1.05-.14.06-.1,0-.14.07-.08,0-.15.08,0,0-.57.34-.07,0-.14.09-.08.05-.13.09-.08.06-.13.09-.08.07-.12.09-.09.06-.12.1a.27.27,0,0,0-.08.07l-.12.09-.08.07-.12.1a.6.6,0,0,1-.08.08l-.11.1-.08.07-.11.1-.08.09a.47.47,0,0,0-.1.1.6.6,0,0,0-.08.08l-.1.11a.3.3,0,0,0-.08.08l-.1.11-.08.08-.09.11-.08.09-.09.11-.07.09L28.1,30l-.07.09-.09.11a.86.86,0,0,1-.07.1l-.09.12-.06.09a.83.83,0,0,0-.08.12l-.07.09a.57.57,0,0,1-.08.13l0,.09-.09.13H20.6a.94.94,0,0,0,0,1.88h5.84v0l-.05.12s0,.08,0,.13l-.05.12a.65.65,0,0,1,0,.13,5987046618897.16,5987046618897.16,0,0,0-.08.26l0,.12s0,.09,0,.14l0,.12,0,.14,0,.12,0,.14,0,.13,0,.14a.69.69,0,0,1,0,.13v0H24a.94.94,0,1,0,0,1.87h1.73v0a2.62,2.62,0,0,0,0,.28v.14c0,.05,0,.09,0,.13a1.34,1.34,0,0,0,0,.2v.07a1.79,1.79,0,0,1,0,.23v0a1.94,1.94,0,0,0,0,.24v0l0,.26h0L26,39h0a2.38,2.38,0,0,1,.05.26h0a2,2,0,0,0,0,.24v0l.06.21v.06a1.05,1.05,0,0,1,.05.19l0,.09s0,.1.05.14,0,.1,0,.15l0,.09a1.46,1.46,0,0,1,.07.19l0,0A3.62,3.62,0,0,0,26.56,41.06Zm10.31,5.07a9.25,9.25,0,0,1-8.6-5.86h0c0-.07-.05-.13-.07-.19l0-.08a.88.88,0,0,1-.05-.15A2.25,2.25,0,0,1,28,39.6l0-.07L28,39.32l0-.06a8.2,8.2,0,0,1-.18-.86v0a8.27,8.27,0,0,1-.1-.87v-.06a1.7,1.7,0,0,1,0-.22v-.36a9.26,9.26,0,0,1,9.25-9.25H37a9.26,9.26,0,0,1-.12,18.51Z"/><path class="cls-2" d="M36.87,29.15a7.72,7.72,0,1,0,7.72,7.72A7.74,7.74,0,0,0,36.87,29.15Zm0,13.57a5.85,5.85,0,1,1,5.85-5.85A5.86,5.86,0,0,1,36.87,42.72Z"/><path class="cls-3" d="M40.48,35.93H37.81v-3a.94.94,0,0,0-1.88,0v3.94a.94.94,0,0,0,.94.94h3.61a.94.94,0,0,0,0-1.88Z"/><path class="cls-4" d="M32.62,7.39a.8.8,0,0,0,.08.16l.12.14a.53.53,0,0,0,.14.12l.17.09.17,0,.18,0,.19,0,.17,0L34,7.81a.57.57,0,0,0,.15-.12.76.76,0,0,0,.11-.14.51.51,0,0,0,.09-.16,1.21,1.21,0,0,0,0-.18.82.82,0,0,0,0-.36,1.21,1.21,0,0,0,0-.18.51.51,0,0,0-.09-.16.76.76,0,0,0-.11-.14A.88.88,0,0,0,34,6.25l-.16-.08a.49.49,0,0,0-.17-.06,1.15,1.15,0,0,0-.37,0,.49.49,0,0,0-.17.06L33,6.25a.81.81,0,0,0-.14.12l-.12.14a.8.8,0,0,0-.08.16,1.27,1.27,0,0,0-.06.18,1.62,1.62,0,0,0,0,.36A1.27,1.27,0,0,0,32.62,7.39Z"/><path class="cls-5" d="M20.6,8h9.48a.94.94,0,0,0,0-1.88H20.6A.94.94,0,0,0,20.6,8Z"/><path class="cls-6" d="M20.08,11.67l.17.08a.85.85,0,0,0,.17.06h.18a1,1,0,0,0,.67-.27,1,1,0,0,0,.27-.66.62.62,0,0,0,0-.19,1.09,1.09,0,0,0-.05-.17.51.51,0,0,0-.09-.16l-.11-.15A1.54,1.54,0,0,0,21,10l-.17,0a.77.77,0,0,0-.37,0l-.17,0a.91.91,0,0,0-.17.09l-.14.11-.12.15a.8.8,0,0,0-.08.16,1.15,1.15,0,0,0-.06.17,1.21,1.21,0,0,0,0,.19,1,1,0,0,0,.27.66Z"/><path class="cls-7" d="M33.48,10H24a.94.94,0,1,0,0,1.87h9.47a.94.94,0,1,0,0-1.87Z"/><path class="cls-8" d="M12.75,3.9A5.06,5.06,0,1,0,17.81,9,5.07,5.07,0,0,0,12.75,3.9Zm0,8.25A3.19,3.19,0,1,1,15.94,9,3.19,3.19,0,0,1,12.75,12.15Z"/><path class="cls-9" d="M13.5,7.48,12.31,8.67l-.62-.25A.94.94,0,0,0,11,10.15l1.2.49a.87.87,0,0,0,.35.07,1,1,0,0,0,.67-.28l1.62-1.62A.94.94,0,1,0,13.5,7.48Z"/><path class="cls-10" d="M32.7,20.06l.12.14a.53.53,0,0,0,.14.12l.17.09.17.05.18,0,.19,0,.17-.05.16-.09a.57.57,0,0,0,.15-.12.76.76,0,0,0,.11-.14.51.51,0,0,0,.09-.16,1.21,1.21,0,0,0,0-.18.82.82,0,0,0,0-.36,1.21,1.21,0,0,0,0-.18.65.65,0,0,0-.09-.16.76.76,0,0,0-.11-.14.57.57,0,0,0-.15-.12l-.16-.09-.17-.05a1.15,1.15,0,0,0-.37,0l-.17.05-.17.09a.53.53,0,0,0-.14.12L32.7,19l-.08.16a1.27,1.27,0,0,0-.06.18,1.62,1.62,0,0,0,0,.36,1.27,1.27,0,0,0,.06.18A.8.8,0,0,0,32.7,20.06Z"/><path class="cls-11" d="M31,19.54a.94.94,0,0,0-.94-.94H20.6a.94.94,0,0,0,0,1.88h9.48A.94.94,0,0,0,31,19.54Z"/><path class="cls-12" d="M19.74,23.76a1.19,1.19,0,0,0,.08.16l.12.14.14.12.17.08a.85.85,0,0,0,.17.06h.18a1,1,0,0,0,.67-.27.76.76,0,0,0,.11-.14.65.65,0,0,0,.09-.16,1.21,1.21,0,0,0,.05-.18.55.55,0,0,0,0-.18.92.92,0,0,0-1.12-.92l-.17.05a.91.91,0,0,0-.17.09l-.14.11a1,1,0,0,0-.27.67,1.09,1.09,0,0,0,0,.18A1.27,1.27,0,0,0,19.74,23.76Z"/><path class="cls-13" d="M33.48,22.46H24a.94.94,0,1,0,0,1.87h9.47a.94.94,0,1,0,0-1.87Z"/><path class="cls-14" d="M12.75,16.41a5.06,5.06,0,1,0,5.06,5.06A5.07,5.07,0,0,0,12.75,16.41Zm0,8.25a3.19,3.19,0,1,1,3.19-3.19A3.19,3.19,0,0,1,12.75,24.66Z"/><path class="cls-15" d="M13.5,20l-1.19,1.19-.62-.26a.94.94,0,0,0-1.22.52A.93.93,0,0,0,11,22.66l1.2.49a.87.87,0,0,0,.35.07,1,1,0,0,0,.67-.28l1.62-1.62A.94.94,0,0,0,13.5,20Z"/><path class="cls-16" d="M21.47,35.55a.51.51,0,0,0-.09-.16l-.11-.15A1.54,1.54,0,0,0,21,35l-.17,0a.77.77,0,0,0-.37,0l-.17,0a.91.91,0,0,0-.17.09l-.14.11-.12.15a.8.8,0,0,0-.08.16,1.15,1.15,0,0,0-.06.17,1.21,1.21,0,0,0,0,.19,1,1,0,0,0,.27.66l.14.12.17.08a.85.85,0,0,0,.17.06h.18a1,1,0,0,0,.67-.27,1,1,0,0,0,.27-.66.62.62,0,0,0,0-.19A1.09,1.09,0,0,0,21.47,35.55Z"/><path class="cls-17" d="M12.75,28.92A5.06,5.06,0,1,0,17.81,34,5.07,5.07,0,0,0,12.75,28.92Zm0,8.25A3.19,3.19,0,1,1,15.94,34,3.19,3.19,0,0,1,12.75,37.17Z"/><path class="cls-18" d="M13.5,32.5l-1.19,1.19-.62-.26a.94.94,0,0,0-1.22.52A.93.93,0,0,0,11,35.17l1.2.49a.87.87,0,0,0,.35.07,1,1,0,0,0,.67-.28l1.62-1.62A.94.94,0,0,0,13.5,32.5Z"/></g></g></svg>