<svg xmlns="http://www.w3.org/2000/svg" xmlns:xlink="http://www.w3.org/1999/xlink" viewBox="0 0 45 45.81"><defs><style>.cls-1{fill:url(#Degradado_sin_nombre_19);}.cls-2{fill:url(#Degradado_sin_nombre_19-2);}.cls-3{fill:url(#Degradado_sin_nombre_19-3);}.cls-4{fill:url(#Degradado_sin_nombre_19-4);}.cls-5{fill:url(#Degradado_sin_nombre_19-5);}.cls-6{fill:url(#Degradado_sin_nombre_19-6);}.cls-7{fill:url(#Degradado_sin_nombre_19-7);}.cls-8{fill:url(#Degradado_sin_nombre_19-8);}.cls-9{fill:url(#Degradado_sin_nombre_19-9);}.cls-10{fill:url(#Degradado_sin_nombre_19-10);}.cls-11{fill:url(#Degradado_sin_nombre_19-11);}.cls-12{fill:url(#Degradado_sin_nombre_19-12);}.cls-13{fill:url(#Degradado_sin_nombre_19-13);}.cls-14{fill:url(#Degradado_sin_nombre_19-14);}.cls-15{fill:url(#Degradado_sin_nombre_19-15);}.cls-16{fill:url(#Degradado_sin_nombre_19-16);}</style><linearGradient id="Degradado_sin_nombre_19" x1="36.28" y1="17.18" x2="38.15" y2="17.18" gradientUnits="userSpaceOnUse"><stop offset="0" stop-color="#ec7083"/><stop offset="0.5" stop-color="#ed217e"/><stop offset="1" stop-color="#ab2f92"/></linearGradient><linearGradient id="Degradado_sin_nombre_19-2" x1="31.51" y1="17.18" x2="33.38" y2="17.18" xlink:href="#Degradado_sin_nombre_19"/><linearGradient id="Degradado_sin_nombre_19-3" x1="26.74" y1="17.18" x2="28.61" y2="17.18" xlink:href="#Degradado_sin_nombre_19"/><linearGradient id="Degradado_sin_nombre_19-4" x1="21.95" y1="40.87" x2="30.54" y2="40.87" xlink:href="#Degradado_sin_nombre_19"/><linearGradient id="Degradado_sin_nombre_19-5" x1="24.81" y1="2.86" x2="30.54" y2="2.86" xlink:href="#Degradado_sin_nombre_19"/><linearGradient id="Degradado_sin_nombre_19-6" x1="7.63" y1="0.95" x2="22.9" y2="0.95" xlink:href="#Degradado_sin_nombre_19"/><linearGradient id="Degradado_sin_nombre_19-7" x1="20.21" y1="0.95" x2="25.77" y2="0.95" xlink:href="#Degradado_sin_nombre_19"/><linearGradient id="Degradado_sin_nombre_19-8" x1="20.99" y1="44.85" x2="22.9" y2="44.85" xlink:href="#Degradado_sin_nombre_19"/><linearGradient id="Degradado_sin_nombre_19-9" x1="8.59" y1="44.85" x2="21.95" y2="44.85" xlink:href="#Degradado_sin_nombre_19"/><linearGradient id="Degradado_sin_nombre_19-10" x1="11.45" y1="32.45" x2="19.09" y2="32.45" xlink:href="#Degradado_sin_nombre_19"/><linearGradient id="Degradado_sin_nombre_19-11" x1="7.63" y1="3.82" x2="22.9" y2="3.82" xlink:href="#Degradado_sin_nombre_19"/><linearGradient id="Degradado_sin_nombre_19-12" x1="7.63" y1="44.85" x2="9.54" y2="44.85" xlink:href="#Degradado_sin_nombre_19"/><linearGradient id="Degradado_sin_nombre_19-13" x1="7.63" y1="41.03" x2="22.9" y2="41.03" xlink:href="#Degradado_sin_nombre_19"/><linearGradient id="Degradado_sin_nombre_19-14" x1="4.77" y1="0.95" x2="10.33" y2="0.95" xlink:href="#Degradado_sin_nombre_19"/><linearGradient id="Degradado_sin_nombre_19-15" x1="0" y1="22.9" x2="8.59" y2="22.9" xlink:href="#Degradado_sin_nombre_19"/><linearGradient id="Degradado_sin_nombre_19-16" x1="19.89" y1="17.18" x2="45" y2="17.18" xlink:href="#Degradado_sin_nombre_19"/></defs><g id="Capa_2" data-name="Capa 2"><g id="Capa_1-2" data-name="Capa 1"><path class="cls-1" d="M38.15,17.18a.94.94,0,1,1-.93-.94.93.93,0,0,1,.93.94Z"/><path class="cls-2" d="M33.38,17.18a.94.94,0,1,1-.93-.94.93.93,0,0,1,.93.94Z"/><path class="cls-3" d="M28.61,17.18a.94.94,0,1,1-.94-.94.94.94,0,0,1,.94.94Z"/><path class="cls-4" d="M25.77,43.9A2.86,2.86,0,0,0,28.63,41V36.89a.94.94,0,0,1,.76-.93.58.58,0,0,1,.19,0,1,1,0,0,1,1,1V41a4.78,4.78,0,0,1-4.77,4.78H22a1,1,0,0,0,.95-1v-1Z"/><path class="cls-5" d="M25.77,0a4.78,4.78,0,0,1,4.77,4.77,1,1,0,1,1-1.91,0,2.86,2.86,0,0,0-2.86-2.86h-1a1,1,0,0,0,1-1,1,1,0,0,0-1-.95Z"/><path class="cls-6" d="M7.63,0H22.9a2.85,2.85,0,0,0-2.69,1.91H10.33A2.87,2.87,0,0,0,7.63,0Z"/><path class="cls-7" d="M22.9,0h1.91a1,1,0,0,1,1,1,1,1,0,0,1-1,1h-4.6A2.85,2.85,0,0,1,22.9,0Z"/><path class="cls-8" d="M21,43.9H22.9v1a1,1,0,1,1-1.91,0Z"/><path class="cls-9" d="M22,45.81H8.59a1,1,0,0,0,.95-1v-1H21v1a1,1,0,0,0,1,1Z"/><path class="cls-10" d="M13.36,32.45a1.91,1.91,0,1,0,1.91-1.91,1.91,1.91,0,0,0-1.91,1.91Zm5.73,0a3.82,3.82,0,1,1-3.82-3.82,3.82,3.82,0,0,1,3.82,3.82Z"/><path class="cls-11" d="M20,2.86a2.71,2.71,0,0,1,.17-.95H22.9a1,1,0,0,0-.95,1,2.86,2.86,0,0,1-2.86,2.87H11.45A2.86,2.86,0,0,1,8.59,2.86a1,1,0,0,0-1-.95h2.7a2.71,2.71,0,0,1,.17,1,1,1,0,0,0,.95,1h7.64a1,1,0,0,0,.95-1Z"/><path class="cls-12" d="M9.54,43.9v1a1,1,0,1,1-1.91,0v-1Z"/><path class="cls-13" d="M22.9,43.9H21v-1a2.85,2.85,0,0,0-2.86-2.86H12.41a2.86,2.86,0,0,0-2.87,2.86v1H7.63v-1a4.78,4.78,0,0,1,4.78-4.77h5.72a4.77,4.77,0,0,1,4.77,4.77Z"/><path class="cls-14" d="M7.63,0a2.87,2.87,0,0,1,2.7,1.91H5.73a1,1,0,0,1-1-1,1,1,0,0,1,1-.95Z"/><path class="cls-15" d="M4.77,45.81A4.78,4.78,0,0,1,0,41V4.77A4.78,4.78,0,0,1,4.77,0h1a1,1,0,0,0-1,1,1,1,0,0,0,1,1h-1A2.86,2.86,0,0,0,1.91,4.77V41A2.86,2.86,0,0,0,4.77,43.9H7.63v1a1,1,0,0,0,1,1Z"/><path class="cls-16" d="M36.32,25.86H19.89V17.18a8.7,8.7,0,0,1,8.68-8.69h7.75a8.69,8.69,0,0,1,0,17.37Zm-14.41-2H36.32a6.67,6.67,0,0,0,0-13.33H28.57a6.67,6.67,0,0,0-6.66,6.67Z"/></g></g></svg>