<svg xmlns="http://www.w3.org/2000/svg" xmlns:xlink="http://www.w3.org/1999/xlink" viewBox="0 0 57 41.84"><defs><style>.cls-1{fill:url(#Degradado_sin_nombre_19);}.cls-2{fill:url(#Degradado_sin_nombre_19-2);}.cls-3{fill:url(#Degradado_sin_nombre_19-3);}.cls-4{fill:url(#Degradado_sin_nombre_19-4);}.cls-5{fill:url(#Degradado_sin_nombre_19-5);}.cls-6{fill:url(#Degradado_sin_nombre_19-6);}.cls-7{fill:url(#Degradado_sin_nombre_19-7);}</style><linearGradient id="Degradado_sin_nombre_19" x1="43.72" y1="19.14" x2="50.75" y2="19.14" gradientUnits="userSpaceOnUse"><stop offset="0" stop-color="#ec7083"/><stop offset="0.5" stop-color="#ed217e"/><stop offset="1" stop-color="#ab2f92"/></linearGradient><linearGradient id="Degradado_sin_nombre_19-2" x1="0" y1="20.92" x2="57" y2="20.92" xlink:href="#Degradado_sin_nombre_19"/><linearGradient id="Degradado_sin_nombre_19-3" x1="51.76" y1="38.33" x2="53.43" y2="38.33" xlink:href="#Degradado_sin_nombre_19"/><linearGradient id="Degradado_sin_nombre_19-4" x1="3.57" y1="38.88" x2="5.24" y2="38.88" xlink:href="#Degradado_sin_nombre_19"/><linearGradient id="Degradado_sin_nombre_19-5" x1="21.43" y1="9.98" x2="35.59" y2="9.98" xlink:href="#Degradado_sin_nombre_19"/><linearGradient id="Degradado_sin_nombre_19-6" x1="17.86" y1="39.22" x2="19.53" y2="39.22" xlink:href="#Degradado_sin_nombre_19"/><linearGradient id="Degradado_sin_nombre_19-7" x1="37.5" y1="39.22" x2="39.17" y2="39.22" xlink:href="#Degradado_sin_nombre_19"/></defs><g id="Capa_2" data-name="Capa 2"><g id="Capa_1-2" data-name="Capa 1"><path class="cls-1" d="M49.54,20.33a.85.85,0,0,0,.38.09.83.83,0,0,0,.37-1.58c-1.94-1-5.58-1-5.73-1a.84.84,0,0,0-.84.83.85.85,0,0,0,.84.84A14.38,14.38,0,0,1,49.54,20.33Z"/><path class="cls-2" d="M54.45,30.72l-3.45-1a.35.35,0,0,1-.25-.34V28.25a6.14,6.14,0,0,0,2.68-5.1V21.57l.33-.67a5.26,5.26,0,0,0,.56-2.37v-4.3a.84.84,0,0,0-.83-.84h-8a5.31,5.31,0,0,0-5.3,5.3v0a4.36,4.36,0,0,0,.47,2l.43.86v1.36a6.53,6.53,0,0,0,2.67,5.27v1.2c0,.19,0,.27-.68.46l-1.69.48-4.86-1.77a.86.86,0,0,0-.23-.64L34.7,26.3V23.56l.49-.42A9.81,9.81,0,0,0,38.27,16V13.82a9.54,9.54,0,0,0,.9-4.06V.83A.84.84,0,0,0,38.33,0H25.83a8,8,0,0,0-8,8V9.76a9.68,9.68,0,0,0,.89,4.06v1.89a10.19,10.19,0,0,0,3.57,7.78V26.3l-1.56,1.63a.85.85,0,0,0-.22.64L15.4,30.44a4.59,4.59,0,0,0-1,.54l-.81-.4A6.46,6.46,0,0,0,16.76,28a.83.83,0,0,0,0-.75c-.6-1.2-.68-3.41-.73-5.18,0-.59,0-1.15-.08-1.64a7.26,7.26,0,0,0-7.08-7,7.26,7.26,0,0,0-7.08,7c0,.49-.06,1-.08,1.64-.05,1.77-.13,4-.73,5.18A.83.83,0,0,0,1,28a6.46,6.46,0,0,0,3.2,2.59L1.94,31.7A3.49,3.49,0,0,0,0,34.84V41a.83.83,0,0,0,.83.83A.83.83,0,0,0,1.67,41V34.84a1.84,1.84,0,0,1,1-1.65L5.48,31.8l1,.92a3.5,3.5,0,0,0,4.84,0l1-.92.91.45a4.39,4.39,0,0,0-.67,2.33V41a.83.83,0,0,0,.83.83.84.84,0,0,0,.84-.83V34.58A2.74,2.74,0,0,1,16,32l5.42-2,2.25,3.38a1.74,1.74,0,0,0,1.27.77h.17a1.74,1.74,0,0,0,1.22-.5l1.38-1.38V41a.83.83,0,0,0,.83.83.84.84,0,0,0,.84-.83v-8.7l1.37,1.38a1.74,1.74,0,0,0,1.22.5h.17a1.74,1.74,0,0,0,1.27-.77L35.64,30l5.41,2a2.74,2.74,0,0,1,1.8,2.57V41a.84.84,0,0,0,.84.83.83.83,0,0,0,.83-.83V34.58a4.41,4.41,0,0,0-1.23-3l.2-.06a4.41,4.41,0,0,0,.78-.28l2.13,2.13V41a.84.84,0,0,0,.84.83.83.83,0,0,0,.83-.83V33.32l2.12-2.12a1.51,1.51,0,0,0,.35.14l3.45,1a1.84,1.84,0,0,1,1.34,1.77V41A.84.84,0,0,0,57,41V34.1A3.53,3.53,0,0,0,54.45,30.72ZM12.38,29.25v-1a6.18,6.18,0,0,0,2.21-2.73,9.77,9.77,0,0,0,.47,2A6.05,6.05,0,0,1,12.38,29.25ZM3.45,20.53a6.22,6.22,0,0,1,1.69-3.89,5.19,5.19,0,0,1,7.46,0,6.22,6.22,0,0,1,1.69,3.89c0,.47.05,1,.07,1.59v.15a7.5,7.5,0,0,0-4.12-3,10.44,10.44,0,0,0-3.18-.5.85.85,0,0,0-.58.25L5,20.57a.84.84,0,0,0,0,1.18.83.83,0,0,0,1.18,0l1.25-1.3c1.08.06,4.56.46,5.91,3.44a4.52,4.52,0,0,1-9-.71.84.84,0,0,0-.84-.83H3.38v-.21C3.4,21.54,3.42,21,3.45,20.53Zm-.77,7a9.77,9.77,0,0,0,.47-2,6.19,6.19,0,0,0,2.21,2.72v1A5.9,5.9,0,0,1,2.68,27.53Zm4.92,4-.78-.74A1.71,1.71,0,0,0,7,30v-.89a6.19,6.19,0,0,0,3.68,0V30a1.71,1.71,0,0,0,.21.81l-.78.74A1.84,1.84,0,0,1,7.6,31.51Zm12.82-15.8V13.63a.77.77,0,0,0-.09-.36,8.08,8.08,0,0,1-.8-3.51V8a6.31,6.31,0,0,1,6.3-6.31H37.5V9.76a8.09,8.09,0,0,1-.81,3.51.77.77,0,0,0-.09.36V16A8,8,0,0,1,34,21.92a8.3,8.3,0,0,1-.64.54h0A8,8,0,0,1,28,24.09,8.28,8.28,0,0,1,20.42,15.71Zm7.44,10c.22,0,.44,0,.66,0A9.7,9.7,0,0,0,33,24.67v1.52l-4.52,3.09L24,26.19V24.64A9.43,9.43,0,0,0,27.86,25.75Zm-2.74,6.76s0,0-.05,0l0,0-2.6-3.9.84-.88,3.94,2.7Zm6.87,0a0,0,0,0,1,0,0s0,0-.05,0l-2.09-2.09,3.94-2.7.84.88Zm10.73-9.57V21.37a.78.78,0,0,0-.09-.37l-.52-1a2.71,2.71,0,0,1-.29-1.22v0a3.64,3.64,0,0,1,3.63-3.63h7.2v3.47a3.64,3.64,0,0,1-.38,1.62l-.42.85a.78.78,0,0,0-.09.37v1.78a4.51,4.51,0,0,1-4.66,4.52A4.67,4.67,0,0,1,42.72,22.93Zm4.33,6.41h.19a6.31,6.31,0,0,0,1.84-.28v.33a2,2,0,0,0,.06.49l-1.9,1.9-1.9-1.89a2,2,0,0,0,0-.5v-.35A5.73,5.73,0,0,0,47.05,29.34Z"/><path class="cls-3" d="M52.59,34.82a.83.83,0,0,0-.83.83V41a.84.84,0,0,0,1.67,0V35.65A.83.83,0,0,0,52.59,34.82Z"/><path class="cls-4" d="M4.41,35.92a.84.84,0,0,0-.84.84V41a.84.84,0,0,0,1.67,0V36.76A.84.84,0,0,0,4.41,35.92Z"/><path class="cls-5" d="M23.1,9.62s0,0,0,0a27,27,0,0,1,5.42-.27c2.61.18,4.49.83,5.61,1.95a.85.85,0,0,0,1.18,0,.83.83,0,0,0,0-1.18c-3.16-3.16-9.76-2.56-12.46-2.15a1.7,1.7,0,0,0-1.46,1.7v1.93a.83.83,0,0,0,.83.83.84.84,0,0,0,.84-.83V9.62Z"/><path class="cls-6" d="M18.69,36.6a.84.84,0,0,0-.83.84V41a.83.83,0,0,0,.83.83.84.84,0,0,0,.84-.83V37.44A.85.85,0,0,0,18.69,36.6Z"/><path class="cls-7" d="M38.33,36.6a.84.84,0,0,0-.83.84V41a.83.83,0,0,0,.83.83.84.84,0,0,0,.84-.83V37.44A.85.85,0,0,0,38.33,36.6Z"/></g></g></svg>